<mxfile host="app.diagrams.net" modified="2023-04-03T03:15:24.694Z" agent="5.0 (Windows NT 10.0; Win64; x64) AppleWebKit/537.36 (KHTML, like Gecko) Chrome/111.0.0.0 Safari/537.36" etag="-mwMuimqu-M3VQgxOOes" version="20.8.21" type="github">
  <diagram id="lo3dpBsUT98VKIOEG2Bf" name="Page-1">
    <mxGraphModel dx="842" dy="534" grid="1" gridSize="10" guides="1" tooltips="1" connect="1" arrows="1" fold="1" page="1" pageScale="1" pageWidth="827" pageHeight="1169" math="0" shadow="0">
      <root>
        <mxCell id="0" />
        <mxCell id="1" parent="0" />
        <mxCell id="gS-s1AukhJiRHsxtb8tl-1" value="&lt;font face=&quot;Verdana&quot; style=&quot;font-size: 20px;&quot;&gt;test&lt;/font&gt;" style="rounded=0;whiteSpace=wrap;html=1;shadow=0;glass=0;sketch=1;curveFitting=1;jiggle=2;" parent="1" vertex="1">
          <mxGeometry x="200" y="430" width="120" height="60" as="geometry" />
        </mxCell>
      </root>
    </mxGraphModel>
  </diagram>
</mxfile>
